<svg id="Слой_1" data-name="Слой 1" xmlns="http://www.w3.org/2000/svg" width="150px" height="40px" viewBox="0 0 149.72 40"><defs><style>.cls-1{fill:#3cd52e;}.cls-2{fill:#ff7009;}.cls-3{fill:#ec1414;}.cls-4{fill:#3c9c39;}.cls-5{fill:#ffb200;}.cls-6{fill:#2194f7;}.cls-7{fill:#333e48;}</style></defs><title>Datero_logo</title><circle class="cls-1" cx="37.91" cy="10.76" r="2.01"/><circle class="cls-2" cx="20.31" cy="2.14" r="2.14"/><circle class="cls-3" cx="29.57" cy="2.41" r="1.97"/><circle cx="37.23" cy="3.1" r="1.8"/><circle class="cls-4" cx="2.62" cy="20.01" r="2.62"/><circle class="cls-5" cx="2.69" cy="10.76" r="2.01"/><circle class="cls-6" cx="3.38" cy="3.1" r="1.8"/><circle class="cls-4" cx="37.91" cy="29.24" r="2.01"/><circle class="cls-3" cx="20.31" cy="37.86" r="2.14"/><circle class="cls-3" cx="37.23" cy="36.9" r="1.8"/><circle class="cls-4" cx="11.04" cy="37.59" r="1.97"/><circle cx="3.38" cy="36.9" r="1.8"/><path class="cls-4" d="M20.3,16a4,4,0,1,0,4,4A4,4,0,0,0,20.3,16Zm0,5.29A1.33,1.33,0,1,1,21.63,20,1.33,1.33,0,0,1,20.3,21.34Z"/><path class="cls-5" d="M10.95,16.61a3.4,3.4,0,1,0,3.4,3.4A3.4,3.4,0,0,0,10.95,16.61Zm0,4.82A1.42,1.42,0,1,1,12.36,20,1.42,1.42,0,0,1,10.95,21.43Z"/><path class="cls-3" d="M29.66,16.61a3.4,3.4,0,1,0,3.4,3.4A3.4,3.4,0,0,0,29.66,16.61Zm0,4.49A1.08,1.08,0,1,1,30.74,20,1.09,1.09,0,0,1,29.66,21.1Z"/><path class="cls-2" d="M20.31,26.88a2.62,2.62,0,1,0,2.62,2.62A2.62,2.62,0,0,0,20.31,26.88Zm0,3.58a1,1,0,1,1,1-1A1,1,0,0,1,20.31,30.46Z"/><path class="cls-6" d="M20.31,7.88a2.62,2.62,0,1,0,2.62,2.62A2.62,2.62,0,0,0,20.31,7.88Zm0,3.47a.85.85,0,1,1,.85-.85A.85.85,0,0,1,20.31,11.35Z"/><path class="cls-5" d="M30,8.09a2.26,2.26,0,1,0,2.26,2.26A2.26,2.26,0,0,0,30,8.09ZM30,11a.66.66,0,1,1,.66-.66A.66.66,0,0,1,30,11Z"/><path class="cls-3" d="M10.63,8.09a2.26,2.26,0,1,0,2.26,2.26A2.26,2.26,0,0,0,10.63,8.09Zm0,3.75a1.5,1.5,0,1,1,1.5-1.5A1.5,1.5,0,0,1,10.63,11.85Z"/><path class="cls-6" d="M30,27.4a2.26,2.26,0,1,0,2.26,2.26A2.26,2.26,0,0,0,30,27.4Zm0,3a.71.71,0,1,1,.71-.71A.71.71,0,0,1,30,30.36Z"/><path class="cls-3" d="M10.63,27.4a2.26,2.26,0,1,0,2.26,2.26A2.26,2.26,0,0,0,10.63,27.4Zm0,3a.71.71,0,1,1,.71-.71A.71.71,0,0,1,10.63,30.36Z"/><path class="cls-1" d="M11,.43a2,2,0,1,0,2,2A2,2,0,0,0,11,.43Zm0,2.44a.47.47,0,1,1,.47-.47A.47.47,0,0,1,11,2.88Z"/><path class="cls-4" d="M29.57,35.62a2,2,0,1,0,2,2A2,2,0,0,0,29.57,35.62Zm0,2.44a.47.47,0,1,1,.47-.47A.47.47,0,0,1,29.57,38.06Z"/><path class="cls-5" d="M38,17.39A2.62,2.62,0,1,0,40.61,20,2.62,2.62,0,0,0,38,17.39Zm0,3.42a.8.8,0,1,1,.8-.8A.8.8,0,0,1,38,20.81Z"/><path class="cls-5" d="M2.69,27.23a2,2,0,1,0,2,2A2,2,0,0,0,2.69,27.23Zm0,2.63a.62.62,0,1,1,.62-.62A.62.62,0,0,1,2.69,29.86Z"/><path class="cls-7" d="M72.28,7.06V28.39H69.14A1.43,1.43,0,0,1,67.71,27h0a5.72,5.72,0,0,1-4.54,1.86c-4,0-7.28-3.5-7.28-8s3.29-8,7.28-8a5.72,5.72,0,0,1,4.54,1.86V8.49a1.43,1.43,0,0,1,1.43-1.43ZM67.71,20.78a3.63,3.63,0,1,0-7.25,0,3.63,3.63,0,1,0,7.25,0Z"/><path class="cls-7" d="M90.76,13.16V28.39H87.62A1.43,1.43,0,0,1,86.19,27h0a5.72,5.72,0,0,1-4.54,1.86c-4,0-7.28-3.5-7.28-8s3.29-8,7.28-8a5.72,5.72,0,0,1,4.54,1.86h0a1.43,1.43,0,0,1,1.43-1.43Zm-4.57,7.62a3.63,3.63,0,1,0-7.25,0,3.63,3.63,0,1,0,7.25,0Z"/><path class="cls-7" d="M100.41,17.55v5.39c0,1.31,1.13,1.43,3.14,1.31v4.14c-6,.61-7.71-1.19-7.71-5.45V17.55H93.4v-3a1.43,1.43,0,0,1,1.43-1.43h1V11.33a1.43,1.43,0,0,1,1-1.37l3.55-1.07v4.27h3.14v4.39Z"/><path class="cls-7" d="M113.58,24.74a4,4,0,0,0,2.93-1.16l3.66,2.1a7.73,7.73,0,0,1-6.64,3.14c-5.21,0-8.44-3.5-8.44-8a7.81,7.81,0,0,1,8.1-8,7.69,7.69,0,0,1,7.74,8,8.84,8.84,0,0,1-.18,1.83H109.92C110.5,24.19,111.9,24.74,113.58,24.74Zm2.8-5.55a3.43,3.43,0,0,0-6.55,0Z"/><path class="cls-7" d="M132.14,12.85V18c-1.89-.3-4.57.46-4.57,3.47v6.89h-3.14A1.43,1.43,0,0,1,123,27V14.59a1.43,1.43,0,0,1,1.43-1.43h3.14v2.71A4.58,4.58,0,0,1,132.14,12.85Z"/><path class="cls-7" d="M133.57,20.78a8.07,8.07,0,1,1,8.07,8A8,8,0,0,1,133.57,20.78Zm11.58,0a3.51,3.51,0,1,0-7,0,3.51,3.51,0,1,0,7,0Z"/></svg>
